<?xml version="1.0" standalone="no"?><!DOCTYPE svg PUBLIC "-//W3C//DTD SVG 1.1//EN" "http://www.w3.org/Graphics/SVG/1.1/DTD/svg11.dtd"><svg t="1605415217445" class="icon" viewBox="0 0 1082 1024" version="1.1" xmlns="http://www.w3.org/2000/svg" p-id="2951" xmlns:xlink="http://www.w3.org/1999/xlink" width="211.328125" height="200"><defs><style type="text/css"></style></defs><path d="M727.999531 792.384261H138.053262a43.071913 43.071913 0 0 1-42.307734-34.735414L1.05679 288.095522a44.669742 44.669742 0 0 1 1.181004-23.620081 43.349796 43.349796 0 0 1 40.918318-29.177748h486.295794a44.322388 44.322388 0 0 1 44.947625 41.682497 43.141384 43.141384 0 0 1-43.141384 44.530801H108.319748a10.212212 10.212212 0 0 0-10.003799 12.157394l73.430665 364.096608a10.142741 10.142741 0 0 0 9.934328 8.128087h501.787789a10.212212 10.212212 0 0 0 10.07327-8.336499L794.274701 145.888738a43.141384 43.141384 0 0 1 21.81384-30.150339l202.160108-110.458616A43.141384 43.141384 0 0 1 1079.174565 27.788331a44.113976 44.113976 0 0 1-20.841248 54.117775l-178.470557 97.259159a10.142741 10.142741 0 0 0-5.140841 6.947082L770.446207 757.232022a43.141384 43.141384 0 0 1-42.446676 35.152239z" p-id="2952" fill="#d81e06"></path><path d="M672.144986 942.441248m-81.558752 0a81.558752 81.558752 0 1 0 163.117503 0 81.558752 81.558752 0 1 0-163.117503 0Z" p-id="2953" fill="#d81e06"></path><path d="M197.311878 942.441248m-81.558751 0a81.558752 81.558752 0 1 0 163.117503 0 81.558752 81.558752 0 1 0-163.117503 0Z" p-id="2954" fill="#d81e06"></path></svg>